<svg xmlns="http://www.w3.org/2000/svg" viewBox="0 0 343 51" width="343" height="51">
	<defs>
		<clipPath clipPathUnits="userSpaceOnUse" id="cp1">
			<path d="M0 0L343 0L343 51L0 51Z" />
		</clipPath>
	</defs>
	<style>
		tspan { white-space:pre }
		.shp0 { fill: #004686 } 
		.shp1 { fill: #579ddc } 
		.shp2 { fill: #ffffff } 
	</style>
	<g id="Page 1" clip-path="url(#cp1)">
		<path id="Path 1" class="shp0" d="M75.27,38.5c0.22,0 0.37,-0.15 0.37,-0.37v-17.59c0,-0.15 0.07,-0.22 0.22,-0.22h5.93c0.22,0 0.37,-0.15 0.37,-0.37v-6.11c0,-0.22 -0.15,-0.37 -0.37,-0.37h-20.02c-0.22,0 -0.37,0.15 -0.37,0.37v6.11c0,0.22 0.15,0.37 0.37,0.37h5.93c0.15,0 0.22,0.07 0.22,0.22v17.59c0,0.22 0.15,0.37 0.37,0.37zM87.88,38.14c0,0.22 0.15,0.37 0.37,0.37h6.99c0.22,0 0.37,-0.15 0.37,-0.37v-8.72c0,-0.15 0.07,-0.22 0.22,-0.22h5.19c0.15,0 0.22,0.07 0.22,0.22v8.72c0,0.22 0.15,0.37 0.37,0.37h6.99c0.22,0 0.37,-0.15 0.37,-0.37v-24.29c0,-0.22 -0.15,-0.37 -0.37,-0.37h-6.99c-0.22,0 -0.37,0.15 -0.37,0.37v8.28c0,0.15 -0.07,0.22 -0.22,0.22h-5.19c-0.15,0 -0.22,-0.07 -0.22,-0.22v-8.28c0,-0.22 -0.15,-0.37 -0.37,-0.37h-6.99c-0.22,0 -0.37,0.15 -0.37,0.37zM116.13,38.14c0,0.22 0.15,0.37 0.37,0.37h6.99c0.22,0 0.37,-0.15 0.37,-0.37v-24.29c0,-0.22 -0.15,-0.37 -0.37,-0.37h-6.99c-0.22,0 -0.37,0.15 -0.37,0.37zM140.37,38.95c6.99,0 10.71,-3.42 10.71,-8.17c0,-4.97 -2.84,-7.51 -8.76,-8.32l-1.32,-0.18c-1.8,-0.26 -2.39,-0.63 -2.39,-1.36c0,-0.77 0.66,-1.36 2.14,-1.36c1.91,0 3.79,0.74 5.41,1.8c0.18,0.11 0.37,0.07 0.52,-0.11l3.31,-4.71c0.18,-0.26 0.15,-0.48 -0.07,-0.62c-2.39,-1.8 -5.74,-2.87 -9.46,-2.87c-5.96,0 -9.75,3.2 -9.75,7.95c0,4.93 3.05,7.47 8.8,8.28l1.32,0.18c1.91,0.26 2.36,0.66 2.36,1.32c0,0.99 -0.92,1.62 -2.87,1.62c-2.32,0 -4.71,-1.18 -6.11,-2.43c-0.15,-0.15 -0.33,-0.15 -0.48,0.04l-3.9,4.6c-0.18,0.22 -0.11,0.52 0.04,0.66c1.91,1.95 6.22,3.68 10.53,3.68zM165.79,38.91c6.22,0 9.42,-3.31 9.42,-7.77c0,-4.31 -2.65,-6.59 -7.47,-7.25l-1.33,-0.18c-3.39,-0.48 -4.6,-1.66 -4.6,-3.39c0,-1.95 1.4,-3.35 3.94,-3.35c2.1,0 3.98,0.63 6,1.95c0.18,0.11 0.37,0.07 0.52,-0.11l1.77,-2.72c0.15,-0.22 0.11,-0.37 -0.08,-0.51c-1.99,-1.51 -4.97,-2.5 -8.1,-2.5c-5.15,0 -8.47,3.02 -8.47,7.55c0,4.16 2.72,6.48 7.55,7.14l1.32,0.18c3.46,0.48 4.56,1.66 4.56,3.46c0,2.1 -1.73,3.61 -4.71,3.61c-2.8,0 -5.19,-1.36 -6.81,-2.65c-0.15,-0.15 -0.37,-0.15 -0.51,0.04l-2.28,2.65c-0.15,0.18 -0.07,0.4 0.07,0.55c1.95,1.84 5.52,3.31 9.2,3.31zM183.07,38.14c0,0.22 0.15,0.37 0.37,0.37h3.61c0.22,0 0.37,-0.15 0.37,-0.37v-24.29c0,-0.22 -0.15,-0.37 -0.37,-0.37h-3.61c-0.22,0 -0.37,0.15 -0.37,0.37zM205.97,38.5c0.22,0 0.37,-0.15 0.37,-0.37v-20.54c0,-0.15 0.07,-0.22 0.22,-0.22h6.55c0.22,0 0.37,-0.15 0.37,-0.37v-3.17c0,-0.22 -0.15,-0.37 -0.37,-0.37h-17.89c-0.22,0 -0.37,0.15 -0.37,0.37v3.17c0,0.22 0.15,0.37 0.37,0.37h6.55c0.15,0 0.22,0.07 0.22,0.22v20.54c0,0.22 0.15,0.37 0.37,0.37zM220.97,38.14c0,0.22 0.15,0.37 0.37,0.37h15.68c0.22,0 0.37,-0.15 0.37,-0.37v-3.16c0,-0.22 -0.15,-0.37 -0.37,-0.37h-11.48c-0.15,0 -0.22,-0.07 -0.22,-0.22v-6.33c0,-0.15 0.07,-0.22 0.22,-0.22h9.68c0.22,0 0.37,-0.15 0.37,-0.37v-3.16c0,-0.22 -0.15,-0.37 -0.37,-0.37h-9.68c-0.15,0 -0.22,-0.07 -0.22,-0.22v-6.11c0,-0.15 0.07,-0.22 0.22,-0.22h11.48c0.22,0 0.37,-0.15 0.37,-0.37v-3.17c0,-0.22 -0.15,-0.37 -0.37,-0.37h-15.68c-0.22,0 -0.37,0.15 -0.37,0.37zM253.23,38.5c0.22,0 0.37,-0.15 0.37,-0.37v-23.37c0,-0.15 0.07,-0.22 0.22,-0.22h7.47c0.22,0 0.37,-0.15 0.37,-0.37v-0.33c0,-0.22 -0.15,-0.37 -0.37,-0.37h-16.53c-0.22,0 -0.37,0.15 -0.37,0.37v0.33c0,0.22 0.15,0.37 0.37,0.37h7.47c0.15,0 0.22,0.07 0.22,0.22v23.37c0,0.22 0.15,0.37 0.37,0.37zM270.21,38.14c0,0.22 0.15,0.37 0.37,0.37h0.4c0.22,0 0.37,-0.15 0.37,-0.37v-24.29c0,-0.22 -0.15,-0.37 -0.37,-0.37h-0.4c-0.22,0 -0.37,0.15 -0.37,0.37zM288.68,38.5c0.22,0 0.37,-0.15 0.37,-0.37v-23.37c0,-0.15 0.07,-0.22 0.22,-0.22h7.47c0.22,0 0.37,-0.15 0.37,-0.37v-0.33c0,-0.22 -0.15,-0.37 -0.37,-0.37h-16.53c-0.22,0 -0.37,0.15 -0.37,0.37v0.33c0,0.22 0.15,0.37 0.37,0.37h7.47c0.15,0 0.22,0.07 0.22,0.22v23.37c0,0.22 0.15,0.37 0.37,0.37zM305.65,38.14c0,0.22 0.15,0.37 0.37,0.37h13.76c0.22,0 0.37,-0.15 0.37,-0.37v-0.33c0,-0.22 -0.15,-0.37 -0.37,-0.37h-12.77c-0.15,0 -0.22,-0.07 -0.22,-0.22v-23.37c0,-0.22 -0.15,-0.37 -0.37,-0.37h-0.4c-0.22,0 -0.37,0.15 -0.37,0.37zM328.82,38.14c0,0.22 0.15,0.37 0.37,0.37h13.76c0.22,0 0.37,-0.15 0.37,-0.37v-0.33c0,-0.22 -0.15,-0.37 -0.37,-0.37h-12.77c-0.15,0 -0.22,-0.07 -0.22,-0.22v-10.67c0,-0.15 0.07,-0.22 0.22,-0.22h11.04c0.22,0 0.37,-0.15 0.37,-0.37v-0.33c0,-0.22 -0.15,-0.37 -0.37,-0.37h-11.04c-0.15,0 -0.22,-0.07 -0.22,-0.22v-10.27c0,-0.15 0.07,-0.22 0.22,-0.22h12.77c0.22,0 0.37,-0.15 0.37,-0.37v-0.33c0,-0.22 -0.15,-0.37 -0.37,-0.37h-13.76c-0.22,0 -0.37,0.15 -0.37,0.37z" />
		<path id="Path 2" class="shp1" d="M41.93,13.1l-28.83,-13.1l-13.1,28.83l28.83,13.1z" />
		<path id="Path 3" class="shp0" d="M44.78,28.61l-22.39,-22.39l-22.39,22.39l22.39,22.39z" />
		<path id="Path 4" class="shp2" d="M31.33,22.23c0,-1.41 -1.14,-2.56 -2.56,-2.56c-1.41,0 -2.56,1.15 -2.56,2.56c0,1.41 1.15,2.56 2.56,2.56c1.41,0 2.56,-1.15 2.56,-2.56z" />
	</g>
</svg>