<svg xmlns="http://www.w3.org/2000/svg" viewBox="0 0 173 137" width="173" height="137">
	<defs>
		<clipPath clipPathUnits="userSpaceOnUse" id="cp1">
			<path d="M0 0L173 0L173 137L0 137Z" />
		</clipPath>
	</defs>
	<style>
		tspan { white-space:pre }
		.shp0 { fill: #b4b9bd } 
		.shp1 { fill: #ffffff } 
	</style>
	<g id="Page 1" clip-path="url(#cp1)">
		<path id="Path 1" class="shp0" d="M96.23,0.42l-1.61,16.57l6.12,0l4.87,-14.57l-3.51,14.57l6.89,0l5.62,-11.29l-4.49,11.37l1.02,0.47l5.25,2.39l6.67,-9.72l-5.75,10.14l6.62,3.01l6.88,-7.52l-6.06,7.89l7.39,3.36l5.56,-4.59l-4.96,4.87l8.75,3.98l2.11,-1.29l-1.88,1.39l28.07,12.76l3.52,1.6v45.61l-3.52,1.6l-32.51,14.78l3.5,2.99l-3.92,-2.8l-8.05,3.66l5.55,6.26l-6.25,-5.94l-7,3.18l5.91,8.92l-6.78,-8.53l-6.45,2.93l5.1,10.67l-6.03,-10.25l-1.74,0.79l-1.18,0.54l-3.85,0l4.05,12.82l-5.3,-12.82l-6.51,0l2.6,15.46l-3.99,-15.46l-5.95,0l0.45,16.8l-1.9,-16.8l-5.78,0l-1.9,16.8l0.45,-16.8l-5.95,0l-3.99,15.46l2.6,-15.46h-6.51l-5.3,12.82l4.05,-12.82h-3.85l-1.18,-0.54l-1.74,-0.79l-6.03,10.25l5.1,-10.67l-6.45,-2.93l-6.78,8.53l5.91,-8.92l-7,-3.18l-6.25,5.94l5.55,-6.26l-8.05,-3.66l-3.92,2.8l3.5,-2.99l-32.51,-14.78l-3.52,-1.6v-45.61l3.52,-1.6l28.07,-12.76l-1.88,-1.39l2.11,1.29l8.75,-3.98l-4.96,-4.87l5.56,4.59l7.39,-3.36l-6.06,-7.89l6.88,7.52l6.62,-3.01l-5.75,-10.14l6.67,9.72l5.25,-2.39l1.02,-0.47l-4.49,-11.37l5.62,11.29l6.89,0l-3.51,-14.57l4.87,14.57l6.12,0l-1.61,-16.57l3.06,16.57l5.76,0l0.74,-17.24l0.74,17.24l5.76,0z" />
		<path id="Path 2" class="shp1" d="M110.32,19.35l58.67,26.67l2.34,1.07v43.04l-2.34,1.07l-58.67,26.67l-0.79,0.36h-45.73l-0.79,-0.36l-58.67,-26.67l-2.34,-1.07v-43.04l2.34,-1.07l58.67,-26.67l0.79,-0.36h45.73zM64.67,22.99l-58.67,26.67v37.88l58.67,26.67h44l58.67,-26.67v-37.88l-58.67,-26.67z" />
	</g>
</svg>