<svg xmlns="http://www.w3.org/2000/svg" viewBox="0 0 186 139" width="186" height="139">
	<defs>
		<clipPath clipPathUnits="userSpaceOnUse" id="cp1">
			<path d="M0 0L186 0L186 139L0 139Z" />
		</clipPath>
	</defs>
	<style>
		tspan { white-space:pre }
		.shp0 { fill: #b4b9bd } 
		.shp1 { fill: #ffffff } 
	</style>
	<g id="Page 1" clip-path="url(#cp1)">
		<path id="Path 1" class="shp0" d="M162.32,69.67c0,38.23 -31.1,69.33 -69.33,69.33c-38.23,0 -69.33,-31.1 -69.33,-69.33c0,-38.23 31.1,-69.33 69.33,-69.33c38.23,0 69.33,31.1 69.33,69.33z" />
		<path id="Path 2" class="shp1" d="M92.98,137c-30.64,0 -56.56,-20.57 -64.69,-48.63h-27.29v-3.66l10.15,-15.05l-10.15,-15.05v-3.66l27.3,0c8.13,-28.05 34.05,-48.62 64.69,-48.62c30.64,0 56.56,20.57 64.69,48.62h27.3v3.66l-10.15,15.05l10.15,15.05v3.66h-27.3c-8.13,28.06 -34.05,48.63 -64.69,48.63zM92.98,133c28.47,0 52.54,-18.78 60.52,-44.63h-121.05c7.98,25.85 32.06,44.63 60.52,44.63zM92.98,6.33c-28.47,0 -52.54,18.78 -60.52,44.62l121.05,0c-7.98,-25.85 -32.06,-44.62 -60.52,-44.62z" />
		<path id="Path 3" class="shp0" d="M185.97,54.93l-0.34,0.51l-9.6,14.23l9.6,14.23l0.34,0.51v4.97h-185.97v-4.97l0.34,-0.51l9.6,-14.23l-9.6,-14.23l-0.34,-0.51v-4.97h185.97zM2,51.96v2.36l10.35,15.35l-10.35,15.35v2.36h181.97v-2.36l-10.35,-15.35l10.35,-15.35v-2.36z" />
		<path id="Path 4" class="shp1" d="M125.32,69.67c0,-17.83 -14.5,-32.33 -32.33,-32.33c-17.83,0 -32.33,14.51 -32.33,32.33c0,17.83 14.5,32.33 32.33,32.33c17.83,0 32.33,-14.5 32.33,-32.33z" />
		<path id="Path 5" class="shp0" d="M126.32,69.67c0,18.38 -14.95,33.33 -33.33,33.33c-18.38,0 -33.33,-14.95 -33.33,-33.33c0,-18.38 14.95,-33.33 33.33,-33.33c18.38,0 33.33,14.95 33.33,33.33zM61.65,69.67c0,17.31 14.03,31.33 31.33,31.33c17.31,0 31.33,-14.03 31.33,-31.33c0,-17.31 -14.03,-31.33 -31.33,-31.33c-17.31,0 -31.33,14.03 -31.33,31.33z" />
	</g>
</svg>