<svg xmlns="http://www.w3.org/2000/svg" viewBox="0 0 121 141" width="121" height="141">
	<defs>
		<clipPath clipPathUnits="userSpaceOnUse" id="cp1">
			<path d="M0 0L121 0L121 141L0 141Z" />
		</clipPath>
	</defs>
	<style>
		tspan { white-space:pre }
		.shp0 { fill: #b4b9bd } 
		.shp1 { fill: #ffffff } 
	</style>
	<g id="Page 1" clip-path="url(#cp1)">
		<path id="Path 1" class="shp0" d="M119.03,31.45l2.25,3.35l-2.25,3.35c-6.48,9.63 -9.9,20.87 -9.9,32.52c0,11.65 3.42,22.89 9.9,32.52l2.25,3.35l-2.25,3.35c-13.11,19.48 -34.94,31.12 -58.39,31.12c-23.45,0 -45.28,-11.63 -58.39,-31.12l-2.25,-3.35l2.25,-3.35c6.48,-9.62 9.9,-20.87 9.9,-32.52c0,-11.65 -3.42,-22.89 -9.9,-32.52l-2.25,-3.35l2.25,-3.35c13.11,-19.48 34.94,-31.12 58.39,-31.12c23.45,0 45.28,11.63 58.39,31.12z" />
		<path id="Path 2" class="shp1" d="M117.37,32.57l1.5,2.23l-1.5,2.23c-6.7,9.96 -10.24,21.59 -10.24,33.63c0,12.05 3.54,23.68 10.24,33.64l1.5,2.23l-1.5,2.23c-12.74,18.93 -33.94,30.23 -56.73,30.23c-22.78,0 -43.99,-11.3 -56.73,-30.23l-1.5,-2.23l1.5,-2.23c6.7,-9.96 10.24,-21.59 10.24,-33.64c0,-12.05 -3.54,-23.68 -10.24,-33.63l-1.5,-2.23l1.5,-2.23c12.74,-18.93 33.94,-30.23 56.73,-30.23c22.78,0 43.99,11.3 56.73,30.23zM7.23,34.8c6.9,10.25 10.92,22.59 10.92,35.87c0,13.28 -4.03,25.62 -10.92,35.87c11.55,17.17 31.16,28.47 53.41,28.47c22.25,0 41.86,-11.3 53.41,-28.47c-6.9,-10.25 -10.92,-22.59 -10.92,-35.87c0,-13.28 4.03,-25.62 10.92,-35.87c-11.55,-17.17 -31.16,-28.47 -53.41,-28.47c-22.25,0 -41.86,11.3 -53.41,28.47z" />
	</g>
</svg>