<svg xmlns="http://www.w3.org/2000/svg">
    <symbol id="logo" viewBox="0 0 157 44">
        <path fill="#000" fill-rule="evenodd" d="M13.12 4.54c-2.48-.4-4.52-1-6.12-1.8V1h31.56v1.74c-1.4.72-3.04 1.22-4.92 1.5v35.58c1.88.32 3.52.8 4.92 1.44V43H23.32v-1.74c.72-.32 1.46-.59 2.22-.81.76-.22 1.54-.43 2.34-.63V4.12H16.66c-.16 6.28-.45 11.49-.87 15.63-.42 4.14-.95 7.56-1.59 10.26-.64 2.7-1.37 4.85-2.19 6.45-.82 1.6-1.71 3.02-2.67 4.26-.8 1.04-1.78 1.8-2.94 2.28-1.16.48-2.28.72-3.36.72-.28-.32-.57-.77-.87-1.35-.3-.58-.58-1.2-.84-1.86-.26-.66-.47-1.32-.63-1.98-.16-.66-.26-1.25-.3-1.77l.9-1.5 6.9 1.26c.6-1 1.19-2.32 1.77-3.96.58-1.64 1.1-3.73 1.56-6.27.46-2.54.84-5.59 1.14-9.15.3-3.56.45-7.76.45-12.6zM43.48 22c0-3.12.43-6.01 1.29-8.67.86-2.66 2.1-4.96 3.72-6.9 1.62-1.94 3.61-3.45 5.97-4.53S59.5.28 62.5.28c3 0 5.68.54 8.04 1.62 2.36 1.08 4.35 2.59 5.97 4.53 1.62 1.94 2.86 4.24 3.72 6.9.86 2.66 1.29 5.55 1.29 8.67s-.43 6.01-1.29 8.67c-.86 2.66-2.1 4.96-3.72 6.9-1.62 1.94-3.61 3.45-5.97 4.53s-5.04 1.62-8.04 1.62c-3 0-5.68-.54-8.04-1.62-2.36-1.08-4.35-2.59-5.97-4.53-1.62-1.94-2.86-4.24-3.72-6.9-.86-2.66-1.29-5.55-1.29-8.67zm6.42 0c0 2.56.27 4.97.81 7.23.54 2.26 1.35 4.23 2.43 5.91 1.08 1.68 2.44 3.01 4.08 3.99 1.64.98 3.58 1.47 5.82 1.47 2.04 0 3.82-.49 5.34-1.47s2.77-2.31 3.75-3.99c.98-1.68 1.72-3.65 2.22-5.91.5-2.26.75-4.67.75-7.23 0-2.56-.26-4.97-.78-7.23-.52-2.26-1.32-4.23-2.4-5.91-1.08-1.68-2.44-3.01-4.08-3.99-1.64-.98-3.58-1.47-5.82-1.47-2.2 0-4.07.49-5.61 1.47s-2.79 2.31-3.75 3.99c-.96 1.68-1.66 3.65-2.1 5.91-.44 2.26-.66 4.67-.66 7.23zm47.22 17.82c1.96.32 3.88.8 5.76 1.44V43H86.44v-1.74c1.6-.64 3.24-1.12 4.92-1.44V4.24c-.8-.16-1.62-.37-2.46-.63-.84-.26-1.66-.55-2.46-.87V1h28.08c0 .8-.02 1.72-.06 2.76a1183 1183 0 0 0-.12 3.24c-.04 1.12-.1 2.21-.18 3.27-.08 1.06-.18 2.01-.3 2.85h-1.56l-3.12-9H97.12v35.7zM118.3 22c0-3.12.43-6.01 1.29-8.67.86-2.66 2.1-4.96 3.72-6.9 1.62-1.94 3.61-3.45 5.97-4.53s5.04-1.62 8.04-1.62c3 0 5.68.54 8.04 1.62 2.36 1.08 4.35 2.59 5.97 4.53 1.62 1.94 2.86 4.24 3.72 6.9.86 2.66 1.29 5.55 1.29 8.67s-.43 6.01-1.29 8.67c-.86 2.66-2.1 4.96-3.72 6.9-1.62 1.94-3.61 3.45-5.97 4.53s-5.04 1.62-8.04 1.62c-3 0-5.68-.54-8.04-1.62-2.36-1.08-4.35-2.59-5.97-4.53-1.62-1.94-2.86-4.24-3.72-6.9-.86-2.66-1.29-5.55-1.29-8.67zm6.42 0c0 2.56.27 4.97.81 7.23.54 2.26 1.35 4.23 2.43 5.91 1.08 1.68 2.44 3.01 4.08 3.99 1.64.98 3.58 1.47 5.82 1.47 2.04 0 3.82-.49 5.34-1.47s2.77-2.31 3.75-3.99c.98-1.68 1.72-3.65 2.22-5.91.5-2.26.75-4.67.75-7.23 0-2.56-.26-4.97-.78-7.23-.52-2.26-1.32-4.23-2.4-5.91-1.08-1.68-2.44-3.01-4.08-3.99-1.64-.98-3.58-1.47-5.82-1.47-2.2 0-4.07.49-5.61 1.47s-2.79 2.31-3.75 3.99c-.96 1.68-1.66 3.65-2.1 5.91-.44 2.26-.66 4.67-.66 7.23z"/>
    </symbol>
    <symbol id="search" viewBox="0 0 21 20">
        <path fill-rule="evenodd"  d="M7.422 12.935A5.52 5.52 0 0 1 1.91 7.422 5.52 5.52 0 0 1 7.422 1.91a5.52 5.52 0 0 1 5.513 5.513 5.52 5.52 0 0 1-5.513 5.513zm4.849-1.307a6.394 6.394 0 0 0 1.574-4.206A6.43 6.43 0 0 0 7.422 1 6.43 6.43 0 0 0 1 7.422a6.43 6.43 0 0 0 6.422 6.423 6.393 6.393 0 0 0 4.206-1.575l7.693 7.694.643-.643-7.693-7.693z"/>
    </symbol>
    <symbol id="lines" viewBox="0 0 243 471">
        <g fill="none" fill-rule="nonzero" stroke="#FF351B" stroke-linecap="square" stroke-width="2">
            <path d="M1.5 331.5v54M1.5 415.5v54M41.5 301.5v54M41.5 385.5v54M81.5 271.5v54M81.5 355.5v54M121.5 241.5v54M121.5 325.5v54M121.5 81.5v54M121.5 165.5v54M161.5 61.5v54M161.5 145.5v54M201.5 31.5v54M201.5 115.5v54M241.5 1.5v54M241.5 85.5v54"/>
        </g>
    </symbol>
    <symbol id="arrow_right" viewBox="0 0 199 237">
        <g fill="none" fill-rule="evenodd">
            <g fill-rule="nonzero" stroke="#FF351B" stroke-linecap="square" stroke-width="4">
                <path d="M103.467 103.467l15.064 15.064M103.467 133.533l15.064-15.064"/>
            </g>
        </g>
    </symbol>
    <symbol id="arrow_down" viewBox="0 0 17 10">
        <g fill="none" fill-rule="nonzero" stroke="#FF351B" stroke-linecap="square" stroke-width="2">
            <path d="M1.5 1.5l7.071 7.071M8.5 8.5l7.071-7.071"/>
        </g>
    </symbol>
    <symbol id="f" viewBox="0 0 18 18">
        <path fill-rule="evenodd" d="M17.064 2.454h-2.367V.096h-1.146v2.358h-2.367v1.143h2.367v2.359h1.146V3.597h2.367V2.454zM5.9 7.16c.593-.023 1.088-.235 1.483-.638.191-.285.311-.579.368-.879.034-.3.049-.553.049-.757 0-.886-.227-1.78-.683-2.682a2.966 2.966 0 0 0-.842-1.053A2.162 2.162 0 0 0 5.05.745a1.98 1.98 0 0 0-1.524.735 2.76 2.76 0 0 0-.49 1.67c0 .813.239 1.658.716 2.537.231.411.529.759.895 1.044.364.286.783.429 1.253.429zm3.143 6.587c0-.57-.187-1.067-.561-1.491-.395-.402-1.012-.895-1.852-1.48a4.933 4.933 0 0 0-.506-.022c-.114-.015-.409 0-.883.044a9.728 9.728 0 0 0-1.432.317c-.114.045-.277.11-.484.198-.209.095-.42.23-.636.406a2.328 2.328 0 0 0-.526.68c-.165.285-.249.628-.249 1.031 0 .788.358 1.439 1.078 1.951.68.511 1.614.774 2.799.789 1.061-.015 1.873-.248 2.431-.702.548-.446.821-1.019.821-1.721zM8.172.81c.142.087.299.216.476.384.171.175.336.391.5.647.157.241.294.526.415.855.099.328.148.712.148 1.151-.013.803-.192 1.446-.534 1.929a6.125 6.125 0 0 1-.534.647c-.208.198-.43.398-.665.603a3.01 3.01 0 0 0-.373.471 1.041 1.041 0 0 0-.201.636.83.83 0 0 0 .207.581c.117.147.23.274.341.384l.765.625c.474.387.892.814 1.251 1.282.337.474.512 1.096.528 1.864 0 1.088-.485 2.053-1.449 2.894-1.001.87-2.444 1.318-4.331 1.348-1.579-.015-2.756-.35-3.537-1.007C.394 15.492 0 14.758 0 13.905c0-.416.127-.879.384-1.39.248-.511.698-.959 1.348-1.345a7.033 7.033 0 0 1 2.301-.833 17.656 17.656 0 0 1 1.982-.196 4.524 4.524 0 0 1-.433-.684c-.15-.234-.224-.517-.224-.848 0-.199.028-.364.085-.496.049-.14.097-.268.139-.385a6.5 6.5 0 0 1-.726.043c-1.199-.014-2.114-.391-2.742-1.129-.66-.686-.989-1.486-.989-2.4 0-1.104.466-2.104 1.398-3.004C3.165.712 3.832.369 4.522.208A9.68 9.68 0 0 1 6.445 0h4.51L9.562.81h-1.39z"/>
    </symbol>
    <symbol id="tw" viewBox="0 0 10 21">
        <path fill-rule="evenodd" d="M2.489 20.37v-9.558H0V7.37h2.489V4.432C2.489 2.121 3.96 0 7.347 0c1.372 0 2.387.134 2.387.134l-.081 3.214s-1.035-.011-2.164-.011c-1.221 0-1.418.572-1.418 1.521V7.37H9.75l-.16 3.442H6.071v9.558H2.489z"/>
    </symbol>
    <symbol id="g" viewBox="0 0 17 14">
        <path fill-rule="evenodd" d="M17 1.657a6.908 6.908 0 0 1-2.002.557A3.543 3.543 0 0 0 16.532.258c-.675.406-1.421.7-2.216.858A3.46 3.46 0 0 0 11.77 0C9.845 0 8.283 1.582 8.283 3.535c0 .276.03.546.09.805-2.9-.148-5.47-1.555-7.19-3.693a3.54 3.54 0 0 0-.472 1.777c0 1.226.616 2.308 1.551 2.942a3.438 3.438 0 0 1-1.58-.443v.045c0 1.712 1.202 3.14 2.8 3.466a3.466 3.466 0 0 1-1.578.06c.444 1.404 1.732 2.426 3.259 2.455A6.94 6.94 0 0 1 0 12.413 9.783 9.783 0 0 0 5.346 14c6.417 0 9.924-5.385 9.924-10.056 0-.153-.002-.306-.01-.457A7.124 7.124 0 0 0 17 1.657"/>
    </symbol>
    <symbol id="arrow_left" viewBox="0 0 173 237">
        <g fill="none" fill-rule="evenodd">
            <path d="M0-1683h1280v4462H0z"/>
            <g fill-rule="nonzero" stroke="#FF351B" stroke-linecap="square" stroke-width="4">
                <path d="M69.533 103.467L54.47 118.53M69.533 133.533L54.47 118.47"/>
            </g>
        </g>
    </symbol>
</svg>