<svg xmlns="http://www.w3.org/2000/svg" viewBox="0 0 97 33" width="97" height="33">
	<defs>
		<clipPath clipPathUnits="userSpaceOnUse" id="cp1">
			<path d="M0 0L97 0L97 33L0 33Z" />
		</clipPath>
	</defs>
	<style>
		tspan { white-space:pre }
		.shp0 { fill: #000000 } 
	</style>
	<g id="Page 1" clip-path="url(#cp1)">
		<path id="Path 1" class="shp0" d="M7.97,31.37l-0.19,-0.05l-0.09,-0.04c0,0.02 -0.06,0.07 -0.18,0.16c-0.14,0.11 -0.31,0.23 -0.5,0.36c-0.19,0.13 -0.38,0.25 -0.58,0.36c-0.19,0.11 -0.35,0.17 -0.48,0.17c0.03,0 -0.15,-0.06 -0.55,-0.17c-0.4,-0.11 -0.86,-0.29 -1.37,-0.53c-0.51,-0.24 -0.98,-0.53 -1.39,-0.89c-0.42,-0.35 -0.62,-0.78 -0.62,-1.3l0.24,-1.06c0.03,-0.1 0.02,-0.26 -0.05,-0.48c-0.06,-0.22 -0.1,-0.42 -0.1,-0.58c0,-2.59 0.19,-5.33 0.58,-8.21c0.03,-0.35 0.08,-1.38 0.14,-3.1c0.06,-1.71 0.14,-4.09 0.24,-7.13l0.1,-3.17c0,-0.13 -0.08,-0.26 -0.24,-0.38c-0.16,-0.13 -0.35,-0.19 -0.58,-0.19h-1.63c-0.22,0 -0.34,-0.06 -0.34,-0.19c0,-0.13 0.06,-0.28 0.19,-0.46c0.13,-0.18 0.19,-0.33 0.19,-0.46c0,-0.03 -0.04,-0.14 -0.12,-0.31c-0.08,-0.17 -0.17,-0.37 -0.26,-0.58c-0.1,-0.21 -0.18,-0.42 -0.26,-0.62c-0.08,-0.21 -0.12,-0.38 -0.12,-0.5l0.1,-0.72c0.06,-0.51 0.1,-0.9 0.12,-1.15c0.02,-0.26 0.18,-0.38 0.5,-0.38c0.16,0 0.45,0.07 0.86,0.22c0.42,0.14 0.85,0.22 1.3,0.22c0.38,0 0.8,-0.01 1.25,-0.02c0.45,-0.02 0.93,-0.04 1.44,-0.07c1.6,-0.1 2.59,-0.14 2.98,-0.14c0.61,0 1.32,-0.07 2.14,-0.22c0.82,-0.14 1.64,-0.22 2.47,-0.22c0.32,0 0.67,0.02 1.06,0.07c0.38,0.05 0.64,0.07 0.77,0.07h0.77c0.32,0 0.52,0.18 0.6,0.55c0.08,0.37 0.1,0.76 0.07,1.18c-0.03,0.42 -0.09,0.79 -0.17,1.13c-0.08,0.34 -0.12,0.49 -0.12,0.46c0,0.13 0.1,0.31 0.29,0.55c0.19,0.24 0.29,0.49 0.29,0.74c0,0.19 -0.04,0.32 -0.12,0.38c-0.08,0.06 -0.3,0.22 -0.65,0.48l-0.29,0.34c-0.16,-0.22 -0.44,-0.38 -0.84,-0.46c-0.4,-0.08 -1.18,-0.12 -2.33,-0.12l-4.03,0.82l0.24,1.06c0.03,0.06 0,0.16 -0.1,0.29c-0.1,0.13 -0.14,0.42 -0.14,0.86c0,0.1 -0.02,0.38 -0.07,0.86c-0.05,0.48 -0.1,1.02 -0.17,1.61c-0.06,0.59 -0.12,1.16 -0.17,1.7c-0.05,0.54 -0.07,0.91 -0.07,1.1c0,0.1 0.03,0.24 0.1,0.43l-0.1,0.34c-0.03,0.13 0.29,0.19 0.96,0.19c0.16,0 0.51,-0.06 1.06,-0.19l1.68,-0.1l1.39,-0.29l0.77,0.1l0.67,-0.1c0.26,-0.06 0.43,-0.03 0.53,0.1c0.1,0.13 0.21,0.42 0.34,0.86l0.1,0.34l-0.14,0.43c-0.03,0.06 -0.02,0.15 0.05,0.26c0.06,0.11 0.1,0.15 0.1,0.12c0,0.13 -0.1,0.37 -0.29,0.72c-0.19,0.35 -0.29,0.66 -0.29,0.91c0,0.13 0.13,0.37 0.38,0.72c0.26,0.35 0.38,0.62 0.38,0.82c0,0.13 -0.06,0.26 -0.19,0.38c-0.13,0.13 -0.26,0.19 -0.38,0.19c-0.16,0 -0.39,-0.06 -0.7,-0.19c-0.3,-0.13 -0.62,-0.19 -0.94,-0.19c-1.22,0 -2.22,0.1 -3.02,0.29c-0.48,0.16 -0.82,0.24 -1.01,0.24l-1.54,-0.05c-0.19,0 -0.29,0.37 -0.29,1.1v1.82c0,0.26 -0.01,0.5 -0.02,0.72c-0.02,0.22 -0.02,0.43 -0.02,0.62c0,0.86 0.02,1.7 0.07,2.52c0.05,0.82 0.1,1.59 0.17,2.33c0.06,0.54 0.19,0.93 0.38,1.15c0.19,0.22 0.29,0.54 0.29,0.96c0,0.38 -0.16,0.58 -0.48,0.58zM7.69,31.28c0,0 0,0 -0.01,0zM21.35,8.42l-0.82,0.1c-0.23,0.03 -0.49,-0.05 -0.79,-0.24c-0.3,-0.19 -0.59,-0.44 -0.86,-0.74c-0.27,-0.3 -0.5,-0.62 -0.67,-0.94c-0.18,-0.32 -0.26,-0.61 -0.26,-0.86c0,-1.5 0.85,-2.54 2.54,-3.12l0.72,0.14c0.93,0.16 1.57,0.5 1.92,1.03c0.35,0.53 0.53,1.21 0.53,2.04c0,0.35 -0.1,0.68 -0.29,0.98c-0.19,0.3 -0.41,0.58 -0.65,0.82c-0.24,0.24 -0.54,0.5 -0.89,0.79zM22.03,29.98l-0.67,-0.05l-0.72,0.1c-0.38,0.07 -0.78,-0.1 -1.2,-0.48c-0.42,-0.38 -0.78,-0.86 -1.1,-1.42c-0.32,-0.56 -0.58,-1.15 -0.79,-1.78c-0.21,-0.62 -0.31,-1.16 -0.31,-1.61c0,-0.32 0.02,-0.74 0.05,-1.27c0.03,-0.53 0.06,-1.05 0.1,-1.56c0.03,-0.51 0.06,-0.98 0.1,-1.42c0.03,-0.43 0.05,-0.71 0.05,-0.84c0,-0.58 0.08,-1.18 0.24,-1.82c0.16,-0.64 0.29,-1.26 0.41,-1.85c0.11,-0.59 0.16,-1.15 0.14,-1.68c-0.02,-0.53 -0.22,-0.95 -0.6,-1.27l0.1,-0.24v-0.34c0,-0.1 0.09,-0.22 0.26,-0.36c0.18,-0.14 0.31,-0.2 0.41,-0.17l0.58,0.05c0.26,-0.16 0.54,-0.3 0.86,-0.41c0.32,-0.11 0.77,-0.17 1.34,-0.17c0.03,0 0.18,0.08 0.46,0.24c0.27,0.16 0.56,0.35 0.86,0.58c0.3,0.22 0.58,0.46 0.82,0.72c0.24,0.26 0.36,0.48 0.36,0.67c0,0.13 -0.09,0.48 -0.26,1.06c-0.18,0.58 -0.38,1.3 -0.6,2.16c-0.22,0.86 -0.43,1.84 -0.6,2.93c-0.18,1.09 -0.26,2.21 -0.26,3.36c0,2.18 0.43,3.26 1.3,3.26c0.48,-0.03 0.9,-0.31 1.27,-0.84c0.37,-0.53 0.69,-1.02 0.96,-1.46c0.27,-0.45 0.48,-0.7 0.62,-0.74c0.1,-0.03 0.16,0.16 0.19,0.56c0.03,-0.18 0.07,-0.38 0.13,-0.59c0.1,-0.29 0.19,-0.72 0.29,-1.3c0.1,-0.58 0.18,-1.14 0.24,-1.7c0.06,-0.56 0.12,-1.02 0.17,-1.39c0.04,-0.33 0.07,-0.47 0.07,-0.43c-0.01,-0.1 -0.05,-0.26 -0.14,-0.48c-0.1,-0.24 -0.19,-0.5 -0.29,-0.79c-0.1,-0.29 -0.19,-0.57 -0.29,-0.84c-0.1,-0.27 -0.14,-0.46 -0.14,-0.55l0.14,-2.78l0.14,-1.78l-0.05,-0.48c0,-0.1 0.02,-0.17 0.07,-0.22c0.05,-0.05 0.2,-0.15 0.46,-0.31l0.58,-0.53c0.22,-0.19 0.46,-0.33 0.7,-0.41c0.24,-0.08 0.33,-0.12 0.26,-0.12c0.64,0 1.1,0.14 1.37,0.43c0.27,0.29 0.41,0.59 0.41,0.91c0,0.29 -0.07,0.58 -0.22,0.86c-0.14,0.29 -0.22,0.91 -0.22,1.87v0.34c0,0.16 0.16,0.24 0.48,0.24c0.51,0 1.03,-0.13 1.56,-0.38c0.53,-0.26 0.94,-0.56 1.22,-0.91c0.19,-0.29 0.38,-0.44 0.58,-0.46c0.19,-0.02 0.42,0.04 0.67,0.17c0.26,0.13 0.56,0.3 0.91,0.5c0.35,0.21 0.78,0.39 1.3,0.55c0.38,0.13 0.59,0.4 0.62,0.82c0.03,0.42 -0.02,0.9 -0.17,1.44c-0.14,0.54 -0.32,1.1 -0.53,1.68c-0.21,0.58 -0.36,1.07 -0.46,1.49v0.67c0,0.8 -0.1,1.65 -0.31,2.54c-0.21,0.9 -0.31,1.76 -0.31,2.59c0,1.06 0.11,1.75 0.34,2.09c0.22,0.34 0.75,0.54 1.58,0.6l0.48,0.1c0.13,0 0.29,-0.14 0.48,-0.43c0.19,-0.29 0.4,-0.62 0.62,-0.98c0.22,-0.37 0.43,-0.7 0.62,-0.98c0.19,-0.29 0.35,-0.43 0.48,-0.43c0.13,0 0.19,0.16 0.19,0.48v1.1c0,0.77 -0.02,1.24 -0.07,1.42c-0.05,0.18 -0.2,0.42 -0.46,0.74c-0.8,0.93 -1.66,1.74 -2.57,2.45c-0.91,0.7 -1.58,1.06 -1.99,1.06c-0.83,0 -1.59,-0.26 -2.28,-0.77c-0.69,-0.51 -1.22,-1.09 -1.61,-1.73c-0.48,-0.83 -0.72,-1.54 -0.72,-2.11c0,-1.22 0.03,-2.16 0.1,-2.83c0.06,-0.67 0.16,-1.38 0.29,-2.11l0.58,-3.02c0.06,-0.26 0.11,-0.46 0.14,-0.6c0.03,-0.14 0.05,-0.23 0.05,-0.26c0,-0.13 -0.07,-0.29 -0.22,-0.48c-0.14,-0.19 -0.28,-0.29 -0.41,-0.29c-0.13,0 -0.31,0.06 -0.55,0.19c-0.24,0.13 -0.52,0.19 -0.84,0.19c-0.1,0.26 -0.25,0.9 -0.46,1.94c-0.21,1.04 -0.47,2.14 -0.79,3.29c-0.32,1.15 -0.66,2.18 -1.03,3.1c-0.37,0.91 -0.76,1.37 -1.18,1.37c-0.13,0 -0.19,-0.11 -0.19,-0.34c0,-0.1 0.02,-0.26 0.05,-0.5c0.02,-0.16 0.04,-0.31 0.04,-0.47c-0.06,0.12 -0.14,0.26 -0.24,0.44l-0.19,0.38l-0.67,0.72l-0.43,0.34l-0.91,0.86l-0.48,0.29c-0.61,0.42 -1.06,0.62 -1.34,0.62zM27.27,18.48c0,0.01 0,0.02 0,0.02c0,-0.01 0,-0.02 0,-0.02zM48.55,20.04c-0.16,0.48 -0.35,0.88 -0.58,1.2l-1.01,3.41c-0.42,1.54 -0.86,2.75 -1.32,3.65c-0.46,0.9 -0.7,1.86 -0.7,2.88c0,0.07 0.02,0.21 0.05,0.43c0.03,0.22 0.05,0.37 0.05,0.43c0,0.45 -0.13,0.72 -0.38,0.82c-0.26,0.1 -0.62,0.14 -1.1,0.14c-0.48,0 -0.8,-0.04 -0.96,-0.12c-0.16,-0.08 -0.37,-0.36 -0.62,-0.84h-0.53c-0.29,0 -0.52,-0.27 -0.7,-0.82c-0.18,-0.54 -0.26,-1.26 -0.26,-2.16c0,-1.86 0.02,-3.38 0.05,-4.56c0.03,-1.18 0.08,-2.02 0.14,-2.5c0.13,-1.06 0.22,-1.86 0.29,-2.42c0.06,-0.56 0.1,-0.89 0.1,-0.98l-0.1,-2.59c-0.03,-0.38 -0.02,-0.67 0.05,-0.86c0.06,-0.19 0.1,-0.32 0.1,-0.38c0,-0.13 -0.06,-0.31 -0.17,-0.55c-0.11,-0.24 -0.17,-0.34 -0.17,-0.31c0,-0.54 0.21,-0.9 0.62,-1.08c0.42,-0.18 0.8,-0.26 1.15,-0.26l0.34,-0.1l0.38,0.19l0.86,-0.05c0.03,0 0.16,0.05 0.38,0.14c0.22,0.1 0.46,0.22 0.72,0.38c0.26,0.16 0.49,0.34 0.7,0.55c0.21,0.21 0.31,0.41 0.31,0.6c-0.13,0.16 -0.27,0.46 -0.43,0.91c-0.16,0.45 -0.26,1.03 -0.29,1.73l-0.24,3.41c-0.1,1.28 -0.21,2.34 -0.34,3.17c-0.13,0.83 -0.21,1.41 -0.24,1.73c0.19,-0.48 0.45,-1.16 0.77,-2.04c0.32,-0.88 0.65,-1.77 0.98,-2.66c0.34,-0.9 0.64,-1.73 0.91,-2.5c0.27,-0.77 0.44,-1.3 0.5,-1.58c0.26,-1.06 0.45,-1.69 0.58,-1.9c0.13,-0.21 0.46,-0.36 1.01,-0.46c0.03,0 0.23,-0.1 0.6,-0.29c0.37,-0.19 0.66,-0.29 0.89,-0.29l0.77,0.48c0.74,0.45 1.11,0.7 1.13,0.74c0.02,0.05 0.02,0.25 0.02,0.6c0,0.03 0.05,0.15 0.17,0.36c0.11,0.21 0.17,0.41 0.17,0.6c0,0.19 -0.02,0.32 -0.05,0.38c-0.29,1.47 -0.51,2.86 -0.67,4.18c-0.16,1.31 -0.24,2.54 -0.24,3.7c0.22,-0.51 0.7,-1.89 1.44,-4.13c0.42,-1.22 0.74,-2.16 0.98,-2.83c0.24,-0.67 0.43,-1.23 0.58,-1.68c0.14,-0.45 0.26,-0.86 0.34,-1.22c0.08,-0.37 0.17,-0.82 0.26,-1.37c0.1,-0.51 0.2,-0.85 0.31,-1.01c0.11,-0.16 0.17,-0.46 0.17,-0.91c0,-0.13 0.02,-0.19 0.05,-0.19l0.82,0.19c0.19,-0.13 0.42,-0.22 0.7,-0.26c0.27,-0.05 0.94,-0.15 1.99,-0.31c0.19,0.03 0.34,0.1 0.43,0.19c0.1,0.1 0.37,0.43 0.82,1.01l0.38,0.48l0.14,0.43c0.06,0.26 0.14,0.43 0.24,0.53c0.1,0.1 0.14,0.18 0.14,0.24c0,0.35 -0.21,0.74 -0.62,1.15c0,-0.13 -0.08,0.16 -0.24,0.86c-0.16,0.7 -0.34,1.54 -0.53,2.52c-0.19,0.98 -0.36,1.94 -0.5,2.88c-0.14,0.94 -0.22,1.59 -0.22,1.94c0,1.12 0.16,2.05 0.48,2.78c0.32,0.74 0.75,1.1 1.3,1.1c0.16,0 0.36,-0.13 0.6,-0.38c0.24,-0.26 0.49,-0.53 0.74,-0.84c0.26,-0.3 0.5,-0.58 0.74,-0.84c0.23,-0.25 0.43,-0.38 0.58,-0.38c0.05,-0.55 0.12,-1.15 0.21,-1.78c0.19,-1.34 0.45,-2.85 0.77,-4.51c0.1,-0.48 0.36,-1.26 0.79,-2.35c0.43,-1.09 1.01,-2.06 1.73,-2.93c0.72,-0.86 1.57,-1.42 2.54,-1.66c0.98,-0.24 2.07,0.25 3.29,1.46c0.16,0.16 0.3,0.24 0.43,0.24c0.1,0 0.39,0.03 0.89,0.1c0.5,0.06 1.02,0.18 1.58,0.36c0.56,0.18 1.06,0.41 1.51,0.7c0.45,0.29 0.67,0.66 0.67,1.1c0,0.06 -0.07,0.22 -0.19,0.46c-0.13,0.24 -0.19,0.39 -0.19,0.46v0.91c0,0.64 -0.21,1.58 -0.62,2.83c-0.42,1.25 -0.62,2.61 -0.62,4.08c0,0.64 0.12,1.32 0.36,2.04c0.24,0.72 0.57,1.08 0.98,1.08c0.29,0 0.62,-0.21 1.01,-0.62c0.38,-0.42 0.74,-0.87 1.08,-1.37c0.34,-0.5 0.62,-0.95 0.86,-1.37c0.24,-0.41 0.38,-0.62 0.41,-0.62c0.13,0 0.19,0.1 0.19,0.29c0,0.13 -0.02,0.31 -0.05,0.55c-0.03,0.24 -0.05,0.47 -0.05,0.7c0,0.16 0.01,0.34 0.02,0.55c0.02,0.21 0.02,0.34 0.02,0.41c0,0.16 -0.13,0.5 -0.38,1.03c-0.26,0.53 -0.63,1.08 -1.13,1.66c-0.5,0.58 -1.1,1.09 -1.8,1.54c-0.7,0.45 -1.51,0.67 -2.4,0.67c-0.45,-0.1 -0.98,-0.34 -1.61,-0.72c-0.62,-0.38 -1.18,-1.14 -1.66,-2.26c-0.13,0.19 -0.34,0.56 -0.65,1.1c-0.31,0.54 -0.66,1.1 -1.06,1.68c-0.4,0.58 -0.86,1.09 -1.37,1.54c-0.51,0.45 -1.03,0.67 -1.54,0.67c-1.28,0 -2.29,-0.64 -3.02,-1.92c-0.56,-0.97 -0.91,-2.05 -1.04,-3.23c-0.02,0.03 -0.04,0.07 -0.06,0.11c-0.06,0.06 -0.26,0.28 -0.58,0.65c-0.32,0.37 -0.74,0.76 -1.25,1.18c-0.51,0.42 -1.07,0.78 -1.68,1.1c-0.61,0.32 -1.22,0.48 -1.82,0.48c-0.61,0 -1.13,-0.2 -1.56,-0.6c-0.43,-0.4 -0.79,-0.9 -1.08,-1.51c-0.29,-0.61 -0.5,-1.26 -0.62,-1.97c-0.13,-0.7 -0.19,-1.36 -0.19,-1.97c0,-0.32 0.03,-0.71 0.1,-1.18c0.06,-0.46 0.13,-0.91 0.19,-1.34c0.06,-0.43 0.12,-0.82 0.17,-1.15c0.05,-0.34 0.07,-0.54 0.07,-0.6c0,-0.03 -0.01,-0.12 -0.02,-0.26c-0.02,-0.14 -0.04,-0.33 -0.07,-0.55c-0.38,0.77 -0.67,1.36 -0.86,1.78c-0.19,0.42 -0.35,0.82 -0.48,1.22c-0.13,0.4 -0.26,0.87 -0.41,1.42c-0.14,0.54 -0.38,1.34 -0.7,2.4c-0.26,0.86 -0.46,1.56 -0.62,2.09c-0.16,0.53 -0.24,0.92 -0.24,1.18l0.05,1.49l-0.34,0.62v0.29c0,0.17 -0.06,0.27 -0.19,0.31c-0.02,-0.02 -0.14,-0.04 -0.34,-0.07c-0.38,-0.06 -0.86,-0.22 -1.42,-0.46c-0.56,-0.24 -1.1,-0.59 -1.61,-1.06c-0.51,-0.46 -0.77,-1.1 -0.77,-1.9c0,-0.7 0.03,-1.5 0.1,-2.4c0.06,-0.89 0.13,-1.75 0.19,-2.57c0.06,-0.82 0.13,-1.54 0.19,-2.16c0.06,-0.62 0.1,-1 0.1,-1.13v-0.29c0,-0.13 -0.02,-0.29 -0.05,-0.48zM52.16,32.55c0.02,0.01 -0.03,0.02 -0.15,0.02c0.06,0 0.11,-0.01 0.15,-0.02zM72.17,14.28c-0.13,0 -0.36,0.36 -0.7,1.08c-0.34,0.72 -0.69,1.62 -1.06,2.71c-0.37,1.09 -0.7,2.29 -0.98,3.6c-0.29,1.31 -0.43,2.54 -0.43,3.7c0,0.61 0.09,1.28 0.26,2.02c0.17,0.74 0.44,1.1 0.79,1.1c0.54,-0.7 0.97,-1.32 1.27,-1.85c0.3,-0.53 0.58,-1.11 0.84,-1.75c0.25,-0.64 0.38,-1.25 0.38,-1.82l0.19,-0.58l0.05,-0.96c0.03,-0.48 0.15,-1.13 0.36,-1.94c0.21,-0.82 0.35,-1.62 0.43,-2.4c0.08,-0.78 0.04,-1.46 -0.12,-2.04c-0.16,-0.58 -0.59,-0.86 -1.3,-0.86zM95.65,31.75c-0.16,0 -0.64,0.1 -1.44,0.29l-1.01,-0.19l-0.77,-0.1c-0.29,-0.06 -0.53,-0.11 -0.72,-0.14c-0.19,-0.03 -0.34,-0.05 -0.43,-0.05c-0.29,0 -0.65,0.03 -1.08,0.1c-0.43,0.07 -0.86,0.13 -1.27,0.19c-0.42,0.06 -0.78,0.13 -1.1,0.19c-0.32,0.06 -0.51,0.1 -0.58,0.1c-0.51,0 -1.09,-0.1 -1.73,-0.29c-0.32,-0.1 -0.6,-0.16 -0.84,-0.19c-0.24,-0.03 -0.43,-0.11 -0.58,-0.24c-0.14,-0.13 -0.25,-0.33 -0.31,-0.6c-0.06,-0.27 -0.08,-0.7 -0.05,-1.27c0,-0.26 -0.13,-0.42 -0.38,-0.5c-0.26,-0.08 -0.38,-0.33 -0.38,-0.74c0,0.03 0.3,-0.49 0.91,-1.56c0.61,-1.07 1.3,-2.32 2.09,-3.74c0.78,-1.42 1.54,-2.84 2.28,-4.25c0.74,-1.41 1.23,-2.41 1.49,-3.02c0.45,-1.02 0.85,-1.93 1.2,-2.71c0.35,-0.78 0.65,-1.53 0.89,-2.23c0.24,-0.7 0.42,-1.42 0.55,-2.14c0.13,-0.72 0.19,-1.51 0.19,-2.38c0,-0.41 -0.14,-0.88 -0.41,-1.39c-0.27,-0.51 -0.65,-0.77 -1.13,-0.77c-0.13,0 -0.41,0.3 -0.84,0.89c-0.43,0.59 -0.88,1.33 -1.34,2.21c-0.46,0.88 -0.88,1.85 -1.25,2.9c-0.37,1.06 -0.55,2.03 -0.55,2.93c0,0.06 0.03,0.18 0.1,0.34c0.06,0.16 0.1,0.27 0.1,0.34c0,0.07 -0.1,0.22 -0.29,0.46c-0.19,0.24 -0.32,0.36 -0.38,0.36l-0.96,-0.05c-0.1,0 -0.26,0.07 -0.5,0.19c-0.24,0.13 -0.41,0.19 -0.5,0.19c-0.16,0 -0.34,-0.14 -0.55,-0.41c-0.21,-0.27 -0.41,-0.58 -0.6,-0.91c-0.19,-0.34 -0.36,-0.66 -0.5,-0.98c-0.14,-0.32 -0.22,-0.53 -0.22,-0.62c0,-0.03 0.02,-0.19 0.07,-0.48c0.05,-0.29 0.15,-0.67 0.31,-1.15l0.96,-2.88c0.26,-0.8 0.42,-1.39 0.5,-1.78c0.08,-0.38 0.14,-0.69 0.19,-0.91c0.05,-0.22 0.1,-0.43 0.17,-0.62c0.06,-0.19 0.21,-0.51 0.43,-0.96c0.1,-0.22 0.14,-0.39 0.12,-0.5c-0.02,-0.11 -0.02,-0.2 -0.02,-0.26c0,-0.06 0.02,-0.12 0.07,-0.17c0.05,-0.05 0.2,-0.12 0.46,-0.22l0.29,-0.19c0.13,0.1 0.29,0.19 0.48,0.29c0.7,-0.19 1.3,-0.34 1.78,-0.43c0.48,-0.1 0.96,-0.19 1.44,-0.29c0.48,-0.1 0.83,-0.14 1.06,-0.14c1.12,0 1.98,0.16 2.59,0.48c1.31,0.51 2.26,1.18 2.83,2.02c0.58,0.83 0.86,1.94 0.86,3.31c0,3.62 -0.96,6.88 -2.88,9.79c-0.29,0.48 -0.48,0.83 -0.58,1.06c-0.1,0.22 -0.18,0.45 -0.26,0.67c-0.08,0.22 -0.2,0.5 -0.36,0.84c-0.16,0.34 -0.46,0.86 -0.91,1.56c-0.9,1.44 -1.61,2.64 -2.14,3.6c-0.53,0.96 -0.79,1.7 -0.79,2.21v0.53l0.82,-0.24l1.39,0.19c0.35,0.07 0.89,0.01 1.61,-0.17c0.72,-0.18 1.7,-0.26 2.95,-0.26c0.26,0 0.38,0.14 0.38,0.43v0.67l0.1,0.48c0.06,0.26 0.14,0.58 0.24,0.98c0.1,0.4 0.14,0.78 0.14,1.13c0,0.51 -0.1,0.85 -0.31,1.01c-0.21,0.16 -0.57,0.24 -1.08,0.24z" />
	</g>
</svg>