<svg xmlns="http://www.w3.org/2000/svg" viewBox="0 0 156 129" width="156" height="129">
	<defs>
		<clipPath clipPathUnits="userSpaceOnUse" id="cp1">
			<path d="M0 0L156 0L156 129L0 129Z" />
		</clipPath>
	</defs>
	<style>
		tspan { white-space:pre }
		.shp0 { fill: #b4b9bd } 
		.shp1 { fill: #ffffff } 
	</style>
	<g id="Page 1" clip-path="url(#cp1)">
		<path id="Path 1" class="shp0" d="M154.97,77.81v-3.66l-10.15,-15.05l10.15,-15.05v-3.66h-153.97v3.66l10.15,15.05l-10.15,15.05v3.66z" />
		<path id="Path 2" class="shp1" d="M155.97,39.39v4.97l-0.34,0.51l-9.6,14.23l9.6,14.23l0.34,0.51v4.97h-155.97v-4.97l0.34,-0.51l9.6,-14.23l-9.6,-14.23l-0.34,-0.51v-4.97zM2,76.81h151.97v-2.36l-10.35,-15.35l10.35,-15.35v-2.36h-151.97v2.36l10.35,15.35l-10.35,15.35z" />
		<path id="Path 3" class="shp0" d="M79.21,0.42l47.33,9.91l4.77,1v54.94c0,11.85 -4.45,23.14 -12.54,31.8c-1.98,2.12 -4.17,4.07 -6.51,5.78l-30.73,22.54l-3.55,2.6l-3.55,-2.6l-30.73,-22.54c-2.34,-1.72 -4.53,-3.66 -6.51,-5.78c-8.08,-8.66 -12.54,-19.96 -12.54,-31.8v-54.94l4.77,-1l47.33,-9.91l1.23,-0.26z" />
		<path id="Path 4" class="shp1" d="M78.8,2.38l47.33,9.91l3.18,0.67v53.31c0,11.34 -4.26,22.15 -12,30.44c-1.9,2.03 -3.99,3.89 -6.23,5.54l-30.73,22.54l-2.37,1.73l-2.37,-1.73l-30.73,-22.54c-2.24,-1.64 -4.34,-3.51 -6.23,-5.54c-7.74,-8.29 -12,-19.1 -12,-30.44v-53.31l3.18,-0.67l47.33,-9.91l0.82,-0.17zM30.66,16.21v50.06c0,10.29 3.9,20.19 10.92,27.71c1.73,1.85 3.63,3.54 5.67,5.04l30.73,22.54l30.73,-22.54c2.04,-1.5 3.94,-3.19 5.67,-5.04c7.02,-7.52 10.92,-17.42 10.92,-27.71v-50.06l-47.33,-9.91z" />
		<path id="Path 5" class="shp0" d="M20.32,67.83h115.33v-37.42h-115.33z" />
		<path id="Path 6" class="shp1" d="M136.65,68.82h-117.33v-39.42h117.33zM134.65,31.41h-113.33v35.42h113.33z" />
	</g>
</svg>