<svg xmlns="http://www.w3.org/2000/svg" viewBox="0 0 206 142" width="206" height="142">
	<defs>
		<clipPath clipPathUnits="userSpaceOnUse" id="cp1">
			<path d="M0 0L206 0L206 142L0 142Z" />
		</clipPath>
	</defs>
	<style>
		tspan { white-space:pre }
		.shp0 { fill: #ffffff } 
		.shp1 { fill: #b4b9bd } 
		.shp2 { fill: none;stroke: #b4b9bd;stroke-width: 2 } 
	</style>
	<g id="Page 1" clip-path="url(#cp1)">
		<path id="Path 1" class="shp0" d="M13.2,139.78l191.28,-86.71l-1.14,-3.38l-14.42,-11.01l4.8,-17.5l-1.2,-3.57l-191.28,86.71l1.14,3.38l14.42,11.01l-4.8,17.5z" />
		<path id="Path 2" class="shp1" d="M193.11,16.24l0.71,2.1l0.75,2.23l0.19,0.58l-0.16,0.59l-4.54,16.55l13.65,10.42l0.49,0.37l0.19,0.58l0.75,2.23l0.58,1.71l-1.65,0.75l-35.67,16.17v39.11l-3.36,1.65l-60.03,29.43l-2.64,1.29l-2.64,-1.29l-41.39,-20.29l-43.72,19.82l-2.01,0.91l-0.71,-2.1l-0.75,-2.23l-0.2,-0.58l0.16,-0.59l4.54,-16.56l-13.64,-10.42l-0.49,-0.37l-0.19,-0.58l-0.75,-2.23l-0.58,-1.71l1.65,-0.75l34.69,-15.73v-87.47h132.06v27.6l22.69,-10.29zM13.8,138.42l42.22,-19.14l-16.32,-8l-3.36,-1.65l0,-20.13l-33.87,15.35l0.75,2.23l14.72,11.24l-4.9,17.86zM203.24,52.53l-0.75,-2.23l-14.72,-11.24l4.9,-17.86l-0.75,-2.23l-23.52,10.66v38.69z" />
		<path id="Path 3" class="shp0" d="M166.4,108.38l-2.24,1.1l-60.03,29.43l-1.76,0.86l-1.76,-0.86l-60.03,-29.43l-1.76,-0.86l-4.45,2.01v-37.21l3.97,-1.79v-69.79h128.06l0,11.9l3.97,-1.79v37.21l-3.97,1.79zM42.34,5.84v63.98l120.06,-54.27v-9.71zM102.37,135.32l60.03,-29.43l0,-53.13l-118.85,53.72z" />
		<path id="Path 4" class="shp2" d="M34.37,110.63l136,-61.47v-37.21l-136,61.47z" />
	</g>
</svg>